<svg width="466" height="450" viewBox="0 0 466 450" fill="none" xmlns="http://www.w3.org/2000/svg">
<rect y="259" width="68" height="191" fill="#030712"/>
<rect x="68" y="159" width="115" height="291" fill="#030712"/>
<rect x="157" y="323" width="115" height="127" fill="#030712"/>
<rect x="389" y="102" width="77" height="348" fill="#030712"/>
<rect x="302" width="125" height="450" fill="#030712"/>
<rect x="245" y="243" width="101" height="207" fill="#030712"/>
<path d="M71.4388 128.001C72.5937 127.955 72.9616 129.223 74.1167 129.265C75.118 129.301 75.5604 128.564 76.5584 128.475C76.9567 128.44 77.2545 128.245 77.5823 128.475C77.7437 128.588 77.8146 128.691 77.8973 128.87C78.1469 129.41 77.6804 129.799 77.346 130.291C77.0152 130.778 76.2433 131.318 76.2433 131.318L76.3221 132.818L75.4557 134.319V135.503L75.7707 136.767L76.8734 138.267L81.4417 140.557L83.8833 142.452L85.7736 144.9L86.64 146.637L87.3489 149.401V154.455L87.7427 154.929L88.2941 155.008C88.2941 155.008 88.7884 154.816 89.318 154.455C89.8475 154.094 90.3054 153.694 90.8145 152.955C91.3235 152.216 91.606 151.474 91.7596 150.665C91.9133 149.856 91.8438 150.17 91.8384 148.927C91.833 147.685 91.2342 145.806 91.2083 144.347C91.1824 142.889 91.1881 142.429 91.3658 141.505C91.5435 140.58 91.6443 140.272 91.9172 139.609C92.1901 138.947 92.2213 138.787 92.7048 138.109C93.1883 137.431 93.6929 136.911 94.5951 136.372C95.4973 135.833 96.6464 135.256 97.273 135.503C97.8997 135.751 97.6321 135.576 97.8244 135.819C98.0167 136.062 98.0631 136.492 97.9032 136.767C97.7432 137.041 97.8753 136.84 97.3518 137.161C96.8284 137.483 95.9104 137.768 95.2976 138.267C94.6848 138.766 94.3638 139.007 93.965 139.767C93.5662 140.527 93.4073 141.386 93.3285 142.334C93.2497 143.282 93.3285 143.676 93.6436 145.256C93.9586 146.835 94.7489 149.599 94.7526 150.349C94.7564 151.099 94.831 151.427 94.6739 152.086C94.5168 152.745 94.2923 153.094 93.965 153.665C93.6377 154.237 93.4484 154.494 93.0198 155.008C92.5913 155.522 92.3264 155.8 91.7596 156.271C91.1929 156.742 91.1443 156.793 90.1056 157.377C89.0669 157.961 86.2462 158.798 86.2462 158.798L84.0409 159.193H71.2812L71.045 158.877V157.851L71.2812 157.535L71.7538 157.456L72.2264 156.982L71.7538 150.27L70.9662 147.98L68.7608 144.347L68.367 143.084L68.2882 141.505L69.8635 134.871L69.6272 133.766C69.6272 133.766 68.5032 132.383 68.2095 131.318C68.1259 131.015 68.0809 130.841 68.052 130.528C67.9977 129.942 67.92 129.541 68.2095 129.028C68.3492 128.78 68.4458 128.632 68.6821 128.475C69.1184 128.185 69.5039 128.48 70.021 128.396C70.5883 128.304 70.8646 128.024 71.4388 128.001Z" fill="#030712"/>
</svg>
