<svg width="250" height="250" viewBox="0 0 250 250" fill="none" xmlns="http://www.w3.org/2000/svg">
<rect width="250" height="250" fill="#1E293B"/>
<path d="M125 50C115.054 59.9456 109.467 73.4348 109.467 87.5C109.467 101.565 115.054 115.054 125 125C134.946 134.946 148.435 140.533 162.5 140.533C176.565 140.533 190.054 134.946 200 125C200 139.834 195.601 154.334 187.36 166.668C179.119 179.001 167.406 188.614 153.701 194.291C139.997 199.968 124.917 201.453 110.368 198.559C95.8197 195.665 82.456 188.522 71.967 178.033C61.4781 167.544 54.335 154.18 51.4411 139.632C48.5472 125.083 50.0325 110.003 55.7091 96.2987C61.3856 82.5943 70.9986 70.8809 83.3323 62.6398C95.666 54.3987 110.166 50 125 50Z" fill="#F9FAFB" stroke="#F9FAFB" stroke-width="16.6667" stroke-linecap="round" stroke-linejoin="round"/>
</svg>
