<svg width="553" height="76" viewBox="0 0 553 76" fill="none" xmlns="http://www.w3.org/2000/svg">
<g clip-path="url(#clip0_95_34)">
<rect width="552.75" height="76" fill="#1E293B"/>
<path d="M85.526 60C85.1847 60 85.014 59.7013 85.014 59.104C85.014 58.5493 85.1847 58.272 85.526 58.272H86.358C87.7233 58.272 88.982 57.7813 90.134 56.8C91.286 55.776 91.862 54.496 91.862 52.96V18.912C91.862 17.4613 91.3927 16.4587 90.454 15.904C89.558 15.3067 88.1927 15.008 86.358 15.008H85.526C85.2273 15.008 85.078 14.7307 85.078 14.176C85.078 13.5787 85.2273 13.28 85.526 13.28H97.366C98.1767 13.28 98.71 13.6213 98.966 14.304L112.726 47.52C112.982 48.1173 113.281 48.416 113.622 48.416C114.049 48.416 114.347 48.1387 114.518 47.584L128.598 14.304C128.897 13.6213 129.43 13.28 130.198 13.28H141.59C141.761 13.28 141.867 13.3653 141.91 13.536C141.995 13.664 142.038 13.8773 142.038 14.176C142.038 14.7307 141.889 15.008 141.59 15.008H140.694C138.817 15.008 137.43 15.328 136.534 15.968C135.681 16.608 135.254 17.7387 135.254 19.36V53.856C135.254 55.52 135.702 56.672 136.598 57.312C137.494 57.952 138.859 58.272 140.694 58.272H141.59C141.889 58.272 142.038 58.5493 142.038 59.104C142.038 59.7013 141.889 60 141.59 60H122.71C122.454 60 122.326 59.7013 122.326 59.104C122.326 58.5493 122.454 58.272 122.71 58.272H123.734C125.569 58.272 126.934 57.952 127.83 57.312C128.726 56.672 129.174 55.52 129.174 53.856V23.328C129.174 22.944 129.11 22.6667 128.982 22.496C128.854 22.2827 128.683 22.176 128.47 22.176C128.171 22.176 127.894 22.4533 127.638 23.008L112.598 58.976C112.342 59.6587 112.022 60 111.638 60C111.254 60 110.934 59.6587 110.678 58.976L95.958 23.392C95.702 22.8373 95.4247 22.56 95.126 22.56C94.9127 22.56 94.742 22.6667 94.614 22.88C94.486 23.0507 94.422 23.328 94.422 23.712V52.96C94.422 54.496 94.998 55.776 96.15 56.8C97.3447 57.7813 98.6033 58.272 99.926 58.272H100.822C101.078 58.272 101.206 58.5493 101.206 59.104C101.206 59.7013 101.078 60 100.822 60H85.526ZM179.218 54.688C179.559 54.688 179.73 54.8373 179.73 55.136L179.666 55.52C179.068 57.2693 178.108 58.592 176.786 59.488C175.463 60.3413 174.162 60.768 172.882 60.768C170.706 60.768 169.106 59.744 168.082 57.696C167.826 57.184 167.548 56.928 167.25 56.928C166.951 56.928 166.695 57.0347 166.482 57.248C164.988 58.4427 163.324 59.36 161.49 60C159.698 60.5973 157.927 60.896 156.178 60.896C153.618 60.896 151.591 60.2987 150.098 59.104C148.604 57.9093 147.858 56.288 147.858 54.24C147.858 52.6187 148.22 51.232 148.946 50.08C149.714 48.8853 150.908 47.8187 152.53 46.88C153.468 46.3253 154.556 45.8773 155.794 45.536C157.074 45.152 158.972 44.64 161.49 44C163.922 43.4027 165.5 42.9973 166.226 42.784C166.994 42.5707 167.378 42.08 167.378 41.312V39.712C167.378 37.536 167.271 35.9573 167.058 34.976C166.887 33.952 166.482 33.056 165.842 32.288C164.988 31.1787 163.516 30.624 161.426 30.624C160.018 30.624 158.887 31.008 158.034 31.776C157.223 32.5013 156.54 33.7173 155.986 35.424C155.26 37.7707 154.087 38.944 152.466 38.944C151.655 38.944 150.908 38.688 150.226 38.176C149.543 37.6213 149.202 36.896 149.202 36C149.202 35.1893 149.5 34.2293 150.098 33.12C150.738 31.968 151.954 30.9227 153.746 29.984C155.58 29.0453 158.183 28.576 161.554 28.576C163.687 28.576 165.607 28.9173 167.314 29.6C169.063 30.24 170.343 31.072 171.154 32.096C171.836 32.992 172.284 33.9307 172.498 34.912C172.754 35.8507 172.882 37.024 172.882 38.432C172.882 40.7787 172.86 42.7413 172.818 44.32L172.754 52.768C172.754 54.56 173.052 55.7547 173.65 56.352C174.247 56.9067 174.866 57.184 175.506 57.184C176.06 57.184 176.615 57.0133 177.17 56.672C177.767 56.3307 178.3 55.776 178.77 55.008C178.898 54.7947 179.047 54.688 179.218 54.688ZM159.122 57.696C160.359 57.696 161.618 57.4613 162.898 56.992C164.22 56.48 165.436 55.7333 166.546 54.752C166.972 54.3253 167.186 53.8987 167.186 53.472V52.896L167.314 46.24C167.314 45.728 167.164 45.3653 166.866 45.152C166.61 44.9387 166.247 44.896 165.778 45.024C161.724 46.0907 158.716 47.264 156.754 48.544C154.834 49.7813 153.874 51.424 153.874 53.472C153.874 54.6667 154.3 55.6693 155.154 56.48C156.007 57.2907 157.33 57.696 159.122 57.696ZM214.203 29.152C214.501 29.152 214.651 29.4293 214.651 29.984C214.651 30.5387 214.437 30.8373 214.011 30.88C211.707 31.0507 209.936 32.3947 208.699 34.912C207.973 36.5333 205.115 43.36 200.123 55.392C198.885 58.4213 197.968 60.64 197.371 62.048C196.773 63.456 196.411 64.3307 196.283 64.672C194.448 68.6827 192.592 71.328 190.715 72.608C188.88 73.9307 187.003 74.592 185.083 74.592C183.717 74.592 182.608 74.272 181.755 73.632C180.901 73.0347 180.475 72.288 180.475 71.392C180.475 70.496 180.752 69.7707 181.307 69.216C181.861 68.704 182.608 68.448 183.547 68.448C184.4 68.448 185.296 68.6613 186.235 69.088C187.003 69.472 187.749 69.664 188.475 69.664C189.371 69.664 190.267 69.216 191.163 68.32C192.101 67.424 192.933 66.208 193.659 64.672L194.299 63.2L195.387 60.704C195.515 60.4053 195.579 60.1067 195.579 59.808C195.579 59.5093 195.515 59.2107 195.387 58.912C192.784 52.7253 189.179 44.2987 184.571 33.632C184.059 32.5227 183.461 31.7973 182.779 31.456C182.096 31.072 181.2 30.88 180.091 30.88C179.792 30.88 179.643 30.5813 179.643 29.984C179.643 29.4293 179.792 29.152 180.091 29.152H194.619C194.96 29.152 195.131 29.4293 195.131 29.984C195.131 30.5813 194.96 30.88 194.619 30.88C193.339 30.9227 192.315 31.136 191.547 31.52C190.779 31.8613 190.395 32.352 190.395 32.992V33.12C190.437 33.376 190.629 33.888 190.971 34.656L197.691 50.976C197.861 51.5307 198.16 51.808 198.587 51.808C198.928 51.808 199.227 51.5307 199.483 50.976L203.195 42.08L206.203 34.72C206.288 34.464 206.331 34.1227 206.331 33.696C206.331 32.7573 205.819 32.0533 204.795 31.584C203.813 31.1147 202.725 30.88 201.531 30.88C201.232 30.88 201.083 30.5813 201.083 29.984C201.083 29.4293 201.232 29.152 201.531 29.152H214.203ZM232.281 60.896C229.209 60.896 226.5 60.1067 224.153 58.528C221.849 56.9067 220.057 54.8587 218.777 52.384C217.54 49.8667 216.921 47.3067 216.921 44.704C216.921 41.9733 217.54 39.3707 218.777 36.896C220.014 34.4213 221.806 32.416 224.153 30.88C226.5 29.344 229.209 28.576 232.281 28.576C235.396 28.576 238.126 29.344 240.473 30.88C242.82 32.416 244.612 34.4213 245.849 36.896C247.129 39.3707 247.769 41.9733 247.769 44.704C247.769 47.3067 247.129 49.8667 245.849 52.384C244.612 54.8587 242.798 56.9067 240.409 58.528C238.062 60.1067 235.353 60.896 232.281 60.896ZM232.281 58.784C235.182 58.784 237.465 57.44 239.129 54.752C240.793 52.0213 241.625 48.672 241.625 44.704C241.625 40.5653 240.793 37.1947 239.129 34.592C237.508 31.9467 235.225 30.624 232.281 30.624C229.422 30.624 227.161 31.9467 225.497 34.592C223.833 37.1947 223.001 40.5653 223.001 44.704C223.001 47.264 223.364 49.632 224.089 51.808C224.857 53.9413 225.924 55.648 227.289 56.928C228.697 58.1653 230.361 58.784 232.281 58.784ZM287.776 58.336C288.117 58.336 288.288 58.6133 288.288 59.168C288.288 59.7227 288.117 60 287.776 60H272.8C272.501 60 272.352 59.7227 272.352 59.168C272.352 58.6133 272.501 58.336 272.8 58.336H273.696C274.89 58.336 275.829 58.1653 276.512 57.824C277.237 57.44 277.6 56.672 277.6 55.52L277.536 43.808L277.472 39.328C277.386 34.208 275.317 31.648 271.264 31.648C269.728 31.648 268.256 32.0747 266.848 32.928C265.44 33.7387 264.202 34.9547 263.136 36.576C262.837 37.1307 262.688 37.6853 262.688 38.24L262.624 55.52C262.624 56.672 262.986 57.44 263.712 57.824C264.437 58.1653 265.418 58.336 266.656 58.336H267.424C267.722 58.336 267.872 58.6133 267.872 59.168C267.872 59.7227 267.722 60 267.424 60H252.512C252.17 60 252 59.7227 252 59.168C252 58.6133 252.17 58.336 252.512 58.336H253.28C254.517 58.336 255.498 58.1653 256.224 57.824C256.949 57.44 257.312 56.672 257.312 55.52L257.12 35.872C257.12 34.592 256.757 33.76 256.032 33.376C255.349 32.992 254.176 32.7147 252.512 32.544C252.256 32.5013 252.085 32.3947 252 32.224C251.957 32.0533 251.936 31.8187 251.936 31.52C251.936 31.264 252.042 31.0933 252.256 31.008C252.725 30.7947 254.517 30.368 257.632 29.728C260.533 29.0453 261.728 28.768 261.216 28.896L261.6 28.832C261.941 28.832 262.197 28.96 262.368 29.216C262.581 29.4293 262.688 29.728 262.688 30.112V31.84C262.688 32.1813 262.73 32.4587 262.816 32.672C262.944 32.8427 263.093 32.928 263.264 32.928C263.605 32.928 263.925 32.736 264.224 32.352C266.656 29.8347 269.45 28.576 272.608 28.576C276.021 28.576 278.581 29.5147 280.288 31.392C282.037 33.2693 282.976 35.552 283.104 38.24C283.146 39.0933 283.168 40.7787 283.168 43.296C283.168 46.752 283.125 50.8267 283.04 55.52C283.04 56.672 283.381 57.44 284.064 57.824C284.789 58.1653 285.77 58.336 287.008 58.336H287.776ZM323.598 54.688C323.939 54.688 324.11 54.8373 324.11 55.136L324.046 55.52C323.448 57.2693 322.488 58.592 321.166 59.488C319.843 60.3413 318.542 60.768 317.262 60.768C315.086 60.768 313.486 59.744 312.462 57.696C312.206 57.184 311.928 56.928 311.63 56.928C311.331 56.928 311.075 57.0347 310.862 57.248C309.368 58.4427 307.704 59.36 305.87 60C304.078 60.5973 302.307 60.896 300.558 60.896C297.998 60.896 295.971 60.2987 294.478 59.104C292.984 57.9093 292.238 56.288 292.238 54.24C292.238 52.6187 292.6 51.232 293.326 50.08C294.094 48.8853 295.288 47.8187 296.91 46.88C297.848 46.3253 298.936 45.8773 300.174 45.536C301.454 45.152 303.352 44.64 305.87 44C308.302 43.4027 309.88 42.9973 310.606 42.784C311.374 42.5707 311.758 42.08 311.758 41.312V39.712C311.758 37.536 311.651 35.9573 311.438 34.976C311.267 33.952 310.862 33.056 310.222 32.288C309.368 31.1787 307.896 30.624 305.806 30.624C304.398 30.624 303.267 31.008 302.414 31.776C301.603 32.5013 300.92 33.7173 300.366 35.424C299.64 37.7707 298.467 38.944 296.846 38.944C296.035 38.944 295.288 38.688 294.606 38.176C293.923 37.6213 293.582 36.896 293.582 36C293.582 35.1893 293.88 34.2293 294.478 33.12C295.118 31.968 296.334 30.9227 298.126 29.984C299.96 29.0453 302.563 28.576 305.934 28.576C308.067 28.576 309.987 28.9173 311.694 29.6C313.443 30.24 314.723 31.072 315.534 32.096C316.216 32.992 316.664 33.9307 316.878 34.912C317.134 35.8507 317.262 37.024 317.262 38.432C317.262 40.7787 317.24 42.7413 317.198 44.32L317.134 52.768C317.134 54.56 317.432 55.7547 318.03 56.352C318.627 56.9067 319.246 57.184 319.886 57.184C320.44 57.184 320.995 57.0133 321.55 56.672C322.147 56.3307 322.68 55.776 323.15 55.008C323.278 54.7947 323.427 54.688 323.598 54.688ZM303.502 57.696C304.739 57.696 305.998 57.4613 307.278 56.992C308.6 56.48 309.816 55.7333 310.926 54.752C311.352 54.3253 311.566 53.8987 311.566 53.472V52.896L311.694 46.24C311.694 45.728 311.544 45.3653 311.246 45.152C310.99 44.9387 310.627 44.896 310.158 45.024C306.104 46.0907 303.096 47.264 301.134 48.544C299.214 49.7813 298.254 51.424 298.254 53.472C298.254 54.6667 298.68 55.6693 299.534 56.48C300.387 57.2907 301.71 57.696 303.502 57.696ZM341.431 60.832C338.7 60.832 336.14 60.1707 333.751 58.848C331.404 57.5253 329.505 55.6693 328.055 53.28C326.604 50.848 325.879 48.0533 325.879 44.896C325.879 42.336 326.476 39.7973 327.671 37.28C328.908 34.7627 330.721 32.6933 333.111 31.072C335.5 29.408 338.337 28.576 341.623 28.576C344.097 28.576 346.209 28.96 347.959 29.728C349.708 30.4533 351.009 31.3493 351.863 32.416C352.759 33.4827 353.207 34.5067 353.207 35.488C353.207 36.2987 352.929 37.0027 352.375 37.6C351.82 38.1973 351.18 38.496 350.455 38.496C349.601 38.496 348.855 38.1973 348.215 37.6C347.617 37.0027 346.977 36.0853 346.295 34.848C344.801 32.1173 342.945 30.752 340.727 30.752C339.105 30.752 337.633 31.3493 336.311 32.544C335.031 33.696 334.007 35.3387 333.239 37.472C332.513 39.5627 332.151 41.9947 332.151 44.768C332.151 47.7973 332.641 50.2933 333.623 52.256C334.647 54.2187 335.927 55.648 337.463 56.544C339.041 57.44 340.684 57.888 342.391 57.888C346.145 57.888 349.26 56.16 351.735 52.704C351.948 52.448 352.161 52.32 352.375 52.32C352.588 52.32 352.759 52.3627 352.887 52.448C353.185 52.6187 353.335 52.832 353.335 53.088C353.335 53.2587 353.292 53.408 353.207 53.536C352.055 55.712 350.455 57.4827 348.407 58.848C346.401 60.1707 344.076 60.832 341.431 60.832ZM389.6 54.688C389.941 54.688 390.112 54.8373 390.112 55.136L390.048 55.52C389.451 57.2693 388.491 58.592 387.168 59.488C385.845 60.3413 384.544 60.768 383.264 60.768C381.088 60.768 379.488 59.744 378.464 57.696C378.208 57.184 377.931 56.928 377.632 56.928C377.333 56.928 377.077 57.0347 376.864 57.248C375.371 58.4427 373.707 59.36 371.872 60C370.08 60.5973 368.309 60.896 366.56 60.896C364 60.896 361.973 60.2987 360.48 59.104C358.987 57.9093 358.24 56.288 358.24 54.24C358.24 52.6187 358.603 51.232 359.328 50.08C360.096 48.8853 361.291 47.8187 362.912 46.88C363.851 46.3253 364.939 45.8773 366.176 45.536C367.456 45.152 369.355 44.64 371.872 44C374.304 43.4027 375.883 42.9973 376.608 42.784C377.376 42.5707 377.76 42.08 377.76 41.312V39.712C377.76 37.536 377.653 35.9573 377.44 34.976C377.269 33.952 376.864 33.056 376.224 32.288C375.371 31.1787 373.899 30.624 371.808 30.624C370.4 30.624 369.269 31.008 368.416 31.776C367.605 32.5013 366.923 33.7173 366.368 35.424C365.643 37.7707 364.469 38.944 362.848 38.944C362.037 38.944 361.291 38.688 360.608 38.176C359.925 37.6213 359.584 36.896 359.584 36C359.584 35.1893 359.883 34.2293 360.48 33.12C361.12 31.968 362.336 30.9227 364.128 29.984C365.963 29.0453 368.565 28.576 371.936 28.576C374.069 28.576 375.989 28.9173 377.696 29.6C379.445 30.24 380.725 31.072 381.536 32.096C382.219 32.992 382.667 33.9307 382.88 34.912C383.136 35.8507 383.264 37.024 383.264 38.432C383.264 40.7787 383.243 42.7413 383.2 44.32L383.136 52.768C383.136 54.56 383.435 55.7547 384.032 56.352C384.629 56.9067 385.248 57.184 385.888 57.184C386.443 57.184 386.997 57.0133 387.552 56.672C388.149 56.3307 388.683 55.776 389.152 55.008C389.28 54.7947 389.429 54.688 389.6 54.688ZM369.504 57.696C370.741 57.696 372 57.4613 373.28 56.992C374.603 56.48 375.819 55.7333 376.928 54.752C377.355 54.3253 377.568 53.8987 377.568 53.472V52.896L377.696 46.24C377.696 45.728 377.547 45.3653 377.248 45.152C376.992 44.9387 376.629 44.896 376.16 45.024C372.107 46.0907 369.099 47.264 367.136 48.544C365.216 49.7813 364.256 51.424 364.256 53.472C364.256 54.6667 364.683 55.6693 365.536 56.48C366.389 57.2907 367.712 57.696 369.504 57.696ZM444.096 58.912C443.84 59.6373 443.328 60 442.56 60H408.256C408.085 60 407.957 59.936 407.872 59.808C407.829 59.6373 407.808 59.4027 407.808 59.104C407.808 58.5067 407.957 58.208 408.256 58.208H409.216C411.093 58.208 412.48 57.9093 413.376 57.312C414.272 56.672 414.72 55.52 414.72 53.856V19.424C414.72 17.76 414.251 16.608 413.312 15.968C412.373 15.328 411.008 15.008 409.216 15.008H408.256C407.957 15.008 407.808 14.7093 407.808 14.112C407.808 13.5573 407.957 13.28 408.256 13.28H427.328C427.541 13.28 427.669 13.3653 427.712 13.536C427.797 13.664 427.84 13.8773 427.84 14.176C427.84 14.7307 427.669 15.008 427.328 15.008H426.432C424.597 15.008 423.211 15.3493 422.272 16.032C421.376 16.672 420.928 17.8027 420.928 19.424V54.112C420.928 55.6053 421.355 56.608 422.208 57.12C423.104 57.632 424.533 57.952 426.496 58.08L427.968 58.144L430.336 58.08C433.92 57.952 436.907 57.056 439.296 55.392C441.685 53.728 443.84 51.5947 445.76 48.992C446.101 48.5227 446.336 48.2453 446.464 48.16C446.549 48.0747 446.635 48.032 446.72 48.032C446.848 48.032 447.04 48.096 447.296 48.224C447.637 48.3947 447.808 48.608 447.808 48.864L447.744 49.184C445.995 53.7067 444.779 56.9493 444.096 58.912ZM483.948 54.688C484.289 54.688 484.46 54.8373 484.46 55.136L484.396 55.52C483.798 57.2693 482.838 58.592 481.516 59.488C480.193 60.3413 478.892 60.768 477.612 60.768C475.436 60.768 473.836 59.744 472.812 57.696C472.556 57.184 472.278 56.928 471.98 56.928C471.681 56.928 471.425 57.0347 471.212 57.248C469.718 58.4427 468.054 59.36 466.22 60C464.428 60.5973 462.657 60.896 460.908 60.896C458.348 60.896 456.321 60.2987 454.828 59.104C453.334 57.9093 452.588 56.288 452.588 54.24C452.588 52.6187 452.95 51.232 453.676 50.08C454.444 48.8853 455.638 47.8187 457.26 46.88C458.198 46.3253 459.286 45.8773 460.524 45.536C461.804 45.152 463.702 44.64 466.22 44C468.652 43.4027 470.23 42.9973 470.956 42.784C471.724 42.5707 472.108 42.08 472.108 41.312V39.712C472.108 37.536 472.001 35.9573 471.788 34.976C471.617 33.952 471.212 33.056 470.572 32.288C469.718 31.1787 468.246 30.624 466.156 30.624C464.748 30.624 463.617 31.008 462.764 31.776C461.953 32.5013 461.27 33.7173 460.716 35.424C459.99 37.7707 458.817 38.944 457.196 38.944C456.385 38.944 455.638 38.688 454.956 38.176C454.273 37.6213 453.932 36.896 453.932 36C453.932 35.1893 454.23 34.2293 454.828 33.12C455.468 31.968 456.684 30.9227 458.476 29.984C460.31 29.0453 462.913 28.576 466.284 28.576C468.417 28.576 470.337 28.9173 472.044 29.6C473.793 30.24 475.073 31.072 475.884 32.096C476.566 32.992 477.014 33.9307 477.228 34.912C477.484 35.8507 477.612 37.024 477.612 38.432C477.612 40.7787 477.59 42.7413 477.548 44.32L477.484 52.768C477.484 54.56 477.782 55.7547 478.38 56.352C478.977 56.9067 479.596 57.184 480.236 57.184C480.79 57.184 481.345 57.0133 481.9 56.672C482.497 56.3307 483.03 55.776 483.5 55.008C483.628 54.7947 483.777 54.688 483.948 54.688ZM463.852 57.696C465.089 57.696 466.348 57.4613 467.628 56.992C468.95 56.48 470.166 55.7333 471.276 54.752C471.702 54.3253 471.916 53.8987 471.916 53.472V52.896L472.044 46.24C472.044 45.728 471.894 45.3653 471.596 45.152C471.34 44.9387 470.977 44.896 470.508 45.024C466.454 46.0907 463.446 47.264 461.484 48.544C459.564 49.7813 458.604 51.424 458.604 53.472C458.604 54.6667 459.03 55.6693 459.884 56.48C460.737 57.2907 462.06 57.696 463.852 57.696ZM505.493 28.576C507.797 28.576 509.951 29.2587 511.957 30.624C513.962 31.9467 515.562 33.7813 516.757 36.128C517.951 38.4747 518.549 41.0987 518.549 44C518.549 47.1147 517.93 49.9733 516.693 52.576C515.455 55.136 513.813 57.1627 511.765 58.656C509.717 60.1493 507.519 60.896 505.173 60.896C501.546 60.896 498.41 59.7013 495.765 57.312C495.466 57.056 495.167 56.928 494.869 56.928C494.485 56.928 494.165 57.12 493.909 57.504L491.541 60.64C491.413 60.8107 491.285 60.896 491.157 60.896L490.773 60.832C490.602 60.7893 490.453 60.7253 490.325 60.64C490.239 60.5547 490.197 60.448 490.197 60.32L490.069 20C490.069 19.104 489.877 18.4427 489.493 18.016C489.109 17.5467 488.639 17.248 488.085 17.12C487.53 16.9493 486.655 16.8 485.461 16.672C485.205 16.672 485.034 16.6293 484.949 16.544C484.906 16.4587 484.885 16.288 484.885 16.032V15.712C484.885 15.4133 485.013 15.2213 485.269 15.136L494.165 13.024L494.549 12.96C494.89 12.96 495.146 13.088 495.317 13.344C495.53 13.5573 495.637 13.856 495.637 14.24V30.496C495.637 31.0507 495.722 31.4347 495.893 31.648C496.106 31.8613 496.362 31.8613 496.661 31.648C499.263 29.6 502.207 28.576 505.493 28.576ZM503.317 57.952C504.981 57.952 506.495 57.4187 507.861 56.352C509.226 55.2427 510.314 53.6427 511.125 51.552C511.935 49.4187 512.341 46.9013 512.341 44C512.341 40.8 511.765 38.2613 510.613 36.384C509.503 34.5067 508.223 33.2053 506.773 32.48C505.365 31.7547 504.127 31.392 503.061 31.392C501.951 31.392 500.799 31.648 499.605 32.16C498.41 32.672 497.322 33.3547 496.341 34.208C495.871 34.6773 495.637 35.232 495.637 35.872V53.792C495.637 54.5173 495.957 55.1147 496.597 55.584C497.663 56.3093 498.794 56.8853 499.989 57.312C501.226 57.7387 502.335 57.952 503.317 57.952ZM527.432 59.808C527.133 60.064 526.813 60.192 526.472 60.192C526.088 60.192 525.832 59.9147 525.704 59.36L523.656 51.168L523.592 50.848C523.592 50.5493 523.762 50.336 524.104 50.208C524.189 50.1653 524.317 50.144 524.488 50.144C524.786 50.144 525.021 50.2933 525.192 50.592C528.946 56.096 533.469 58.848 538.76 58.848C540.722 58.848 542.258 58.336 543.368 57.312C544.52 56.288 545.096 54.9653 545.096 53.344C545.096 52.4053 544.797 51.5307 544.2 50.72C543.645 49.9093 542.856 49.2693 541.832 48.8C540.765 48.288 539.506 47.8187 538.056 47.392C536.605 46.9653 535.709 46.7093 535.368 46.624C533.362 46.0693 531.954 45.6213 531.144 45.28C527.09 43.5307 525.064 40.8853 525.064 37.344C525.064 36.2347 525.362 35.0187 525.96 33.696C526.557 32.3307 527.56 31.136 528.968 30.112C530.418 29.088 532.338 28.576 534.728 28.576C535.794 28.576 536.754 28.6827 537.608 28.896C538.504 29.0667 539.485 29.3227 540.552 29.664C541.49 29.92 542.045 30.048 542.216 30.048C542.984 30.048 543.773 29.7707 544.584 29.216C544.925 28.96 545.224 28.832 545.48 28.832C545.821 28.832 546.056 29.088 546.184 29.6L548.36 36.768C548.402 36.896 548.424 37.0453 548.424 37.216C548.424 37.472 548.253 37.6853 547.912 37.856C547.826 37.8987 547.698 37.92 547.528 37.92C546.973 37.6213 546.568 37.3013 546.312 36.96C544.946 35.296 543.218 33.824 541.128 32.544C539.037 31.2213 536.84 30.56 534.536 30.56C532.53 30.56 531.058 31.0933 530.12 32.16C529.181 33.184 528.712 34.2507 528.712 35.36C528.712 36.256 529.01 37.024 529.608 37.664C530.205 38.304 531.208 38.9653 532.616 39.648C533.597 40.1173 535.304 40.7147 537.736 41.44C540.509 42.2507 542.578 42.976 543.944 43.616C545.864 44.512 547.293 45.6427 548.232 47.008C549.213 48.3733 549.704 49.9093 549.704 51.616C549.704 54.3893 548.658 56.6293 546.568 58.336C544.52 60.0427 541.768 60.896 538.312 60.896C537.245 60.896 536.2 60.7893 535.176 60.576C534.152 60.3627 532.893 60.0427 531.4 59.616C530.376 59.2747 529.672 59.104 529.288 59.104C528.648 59.104 528.029 59.3387 527.432 59.808Z" fill="white"/>
<path d="M33.75 12C29.7718 15.9782 27.5368 21.3739 27.5368 27C27.5368 32.6261 29.7718 38.0217 33.75 42C37.7283 45.9782 43.1239 48.2132 48.75 48.2132C54.3761 48.2132 59.7718 45.9782 63.75 42C63.75 47.9334 61.9905 53.7336 58.6941 58.6671C55.3976 63.6006 50.7123 67.4458 45.2305 69.7164C39.7487 71.987 33.7167 72.5811 27.8973 71.4236C22.0779 70.266 16.7324 67.4088 12.5368 63.2132C8.34123 59.0176 5.48401 53.6721 4.32645 47.8527C3.1689 42.0333 3.763 36.0013 6.03363 30.5195C8.30426 25.0377 12.1494 20.3524 17.0829 17.0559C22.0164 13.7595 27.8166 12 33.75 12Z" fill="#F9FAFB" stroke="#F9FAFB" stroke-width="6.66667" stroke-linecap="round" stroke-linejoin="round"/>
</g>
<defs>
<clipPath id="clip0_95_34">
<rect width="552.75" height="76" fill="white"/>
</clipPath>
</defs>
</svg>
