<svg width="563" height="90" viewBox="0 0 563 90" fill="none" xmlns="http://www.w3.org/2000/svg">
<g clip-path="url(#clip0_14_11)">
<rect width="563" height="89.5" fill="#1E293B"/>
<path d="M95.776 60C95.4347 60 95.264 59.7013 95.264 59.104C95.264 58.5493 95.4347 58.272 95.776 58.272H96.608C97.9733 58.272 99.232 57.7813 100.384 56.8C101.536 55.776 102.112 54.496 102.112 52.96V18.912C102.112 17.4613 101.643 16.4587 100.704 15.904C99.808 15.3067 98.4427 15.008 96.608 15.008H95.776C95.4773 15.008 95.328 14.7307 95.328 14.176C95.328 13.5787 95.4773 13.28 95.776 13.28H107.616C108.427 13.28 108.96 13.6213 109.216 14.304L122.976 47.52C123.232 48.1173 123.531 48.416 123.872 48.416C124.299 48.416 124.597 48.1387 124.768 47.584L138.848 14.304C139.147 13.6213 139.68 13.28 140.448 13.28H151.84C152.011 13.28 152.117 13.3653 152.16 13.536C152.245 13.664 152.288 13.8773 152.288 14.176C152.288 14.7307 152.139 15.008 151.84 15.008H150.944C149.067 15.008 147.68 15.328 146.784 15.968C145.931 16.608 145.504 17.7387 145.504 19.36V53.856C145.504 55.52 145.952 56.672 146.848 57.312C147.744 57.952 149.109 58.272 150.944 58.272H151.84C152.139 58.272 152.288 58.5493 152.288 59.104C152.288 59.7013 152.139 60 151.84 60H132.96C132.704 60 132.576 59.7013 132.576 59.104C132.576 58.5493 132.704 58.272 132.96 58.272H133.984C135.819 58.272 137.184 57.952 138.08 57.312C138.976 56.672 139.424 55.52 139.424 53.856V23.328C139.424 22.944 139.36 22.6667 139.232 22.496C139.104 22.2827 138.933 22.176 138.72 22.176C138.421 22.176 138.144 22.4533 137.888 23.008L122.848 58.976C122.592 59.6587 122.272 60 121.888 60C121.504 60 121.184 59.6587 120.928 58.976L106.208 23.392C105.952 22.8373 105.675 22.56 105.376 22.56C105.163 22.56 104.992 22.6667 104.864 22.88C104.736 23.0507 104.672 23.328 104.672 23.712V52.96C104.672 54.496 105.248 55.776 106.4 56.8C107.595 57.7813 108.853 58.272 110.176 58.272H111.072C111.328 58.272 111.456 58.5493 111.456 59.104C111.456 59.7013 111.328 60 111.072 60H95.776ZM189.468 54.688C189.809 54.688 189.98 54.8373 189.98 55.136L189.916 55.52C189.318 57.2693 188.358 58.592 187.036 59.488C185.713 60.3413 184.412 60.768 183.132 60.768C180.956 60.768 179.356 59.744 178.332 57.696C178.076 57.184 177.798 56.928 177.5 56.928C177.201 56.928 176.945 57.0347 176.732 57.248C175.238 58.4427 173.574 59.36 171.74 60C169.948 60.5973 168.177 60.896 166.428 60.896C163.868 60.896 161.841 60.2987 160.348 59.104C158.854 57.9093 158.108 56.288 158.108 54.24C158.108 52.6187 158.47 51.232 159.196 50.08C159.964 48.8853 161.158 47.8187 162.78 46.88C163.718 46.3253 164.806 45.8773 166.044 45.536C167.324 45.152 169.222 44.64 171.74 44C174.172 43.4027 175.75 42.9973 176.476 42.784C177.244 42.5707 177.628 42.08 177.628 41.312V39.712C177.628 37.536 177.521 35.9573 177.308 34.976C177.137 33.952 176.732 33.056 176.092 32.288C175.238 31.1787 173.766 30.624 171.676 30.624C170.268 30.624 169.137 31.008 168.284 31.776C167.473 32.5013 166.79 33.7173 166.236 35.424C165.51 37.7707 164.337 38.944 162.716 38.944C161.905 38.944 161.158 38.688 160.476 38.176C159.793 37.6213 159.452 36.896 159.452 36C159.452 35.1893 159.75 34.2293 160.348 33.12C160.988 31.968 162.204 30.9227 163.996 29.984C165.83 29.0453 168.433 28.576 171.804 28.576C173.937 28.576 175.857 28.9173 177.564 29.6C179.313 30.24 180.593 31.072 181.404 32.096C182.086 32.992 182.534 33.9307 182.748 34.912C183.004 35.8507 183.132 37.024 183.132 38.432C183.132 40.7787 183.11 42.7413 183.068 44.32L183.004 52.768C183.004 54.56 183.302 55.7547 183.9 56.352C184.497 56.9067 185.116 57.184 185.756 57.184C186.31 57.184 186.865 57.0133 187.42 56.672C188.017 56.3307 188.55 55.776 189.02 55.008C189.148 54.7947 189.297 54.688 189.468 54.688ZM169.372 57.696C170.609 57.696 171.868 57.4613 173.148 56.992C174.47 56.48 175.686 55.7333 176.796 54.752C177.222 54.3253 177.436 53.8987 177.436 53.472V52.896L177.564 46.24C177.564 45.728 177.414 45.3653 177.116 45.152C176.86 44.9387 176.497 44.896 176.028 45.024C171.974 46.0907 168.966 47.264 167.004 48.544C165.084 49.7813 164.124 51.424 164.124 53.472C164.124 54.6667 164.55 55.6693 165.404 56.48C166.257 57.2907 167.58 57.696 169.372 57.696ZM224.453 29.152C224.751 29.152 224.901 29.4293 224.901 29.984C224.901 30.5387 224.687 30.8373 224.261 30.88C221.957 31.0507 220.186 32.3947 218.949 34.912C218.223 36.5333 215.365 43.36 210.373 55.392C209.135 58.4213 208.218 60.64 207.621 62.048C207.023 63.456 206.661 64.3307 206.533 64.672C204.698 68.6827 202.842 71.328 200.965 72.608C199.13 73.9307 197.253 74.592 195.333 74.592C193.967 74.592 192.858 74.272 192.005 73.632C191.151 73.0347 190.725 72.288 190.725 71.392C190.725 70.496 191.002 69.7707 191.557 69.216C192.111 68.704 192.858 68.448 193.797 68.448C194.65 68.448 195.546 68.6613 196.485 69.088C197.253 69.472 197.999 69.664 198.725 69.664C199.621 69.664 200.517 69.216 201.413 68.32C202.351 67.424 203.183 66.208 203.909 64.672L204.549 63.2L205.637 60.704C205.765 60.4053 205.829 60.1067 205.829 59.808C205.829 59.5093 205.765 59.2107 205.637 58.912C203.034 52.7253 199.429 44.2987 194.821 33.632C194.309 32.5227 193.711 31.7973 193.029 31.456C192.346 31.072 191.45 30.88 190.341 30.88C190.042 30.88 189.893 30.5813 189.893 29.984C189.893 29.4293 190.042 29.152 190.341 29.152H204.869C205.21 29.152 205.381 29.4293 205.381 29.984C205.381 30.5813 205.21 30.88 204.869 30.88C203.589 30.9227 202.565 31.136 201.797 31.52C201.029 31.8613 200.645 32.352 200.645 32.992V33.12C200.687 33.376 200.879 33.888 201.221 34.656L207.941 50.976C208.111 51.5307 208.41 51.808 208.837 51.808C209.178 51.808 209.477 51.5307 209.733 50.976L213.445 42.08L216.453 34.72C216.538 34.464 216.581 34.1227 216.581 33.696C216.581 32.7573 216.069 32.0533 215.045 31.584C214.063 31.1147 212.975 30.88 211.781 30.88C211.482 30.88 211.333 30.5813 211.333 29.984C211.333 29.4293 211.482 29.152 211.781 29.152H224.453ZM242.531 60.896C239.459 60.896 236.75 60.1067 234.403 58.528C232.099 56.9067 230.307 54.8587 229.027 52.384C227.79 49.8667 227.171 47.3067 227.171 44.704C227.171 41.9733 227.79 39.3707 229.027 36.896C230.264 34.4213 232.056 32.416 234.403 30.88C236.75 29.344 239.459 28.576 242.531 28.576C245.646 28.576 248.376 29.344 250.723 30.88C253.07 32.416 254.862 34.4213 256.099 36.896C257.379 39.3707 258.019 41.9733 258.019 44.704C258.019 47.3067 257.379 49.8667 256.099 52.384C254.862 54.8587 253.048 56.9067 250.659 58.528C248.312 60.1067 245.603 60.896 242.531 60.896ZM242.531 58.784C245.432 58.784 247.715 57.44 249.379 54.752C251.043 52.0213 251.875 48.672 251.875 44.704C251.875 40.5653 251.043 37.1947 249.379 34.592C247.758 31.9467 245.475 30.624 242.531 30.624C239.672 30.624 237.411 31.9467 235.747 34.592C234.083 37.1947 233.251 40.5653 233.251 44.704C233.251 47.264 233.614 49.632 234.339 51.808C235.107 53.9413 236.174 55.648 237.539 56.928C238.947 58.1653 240.611 58.784 242.531 58.784ZM298.026 58.336C298.367 58.336 298.538 58.6133 298.538 59.168C298.538 59.7227 298.367 60 298.026 60H283.05C282.751 60 282.602 59.7227 282.602 59.168C282.602 58.6133 282.751 58.336 283.05 58.336H283.946C285.14 58.336 286.079 58.1653 286.762 57.824C287.487 57.44 287.85 56.672 287.85 55.52L287.786 43.808L287.722 39.328C287.636 34.208 285.567 31.648 281.514 31.648C279.978 31.648 278.506 32.0747 277.098 32.928C275.69 33.7387 274.452 34.9547 273.386 36.576C273.087 37.1307 272.938 37.6853 272.938 38.24L272.874 55.52C272.874 56.672 273.236 57.44 273.962 57.824C274.687 58.1653 275.668 58.336 276.906 58.336H277.674C277.972 58.336 278.122 58.6133 278.122 59.168C278.122 59.7227 277.972 60 277.674 60H262.762C262.42 60 262.25 59.7227 262.25 59.168C262.25 58.6133 262.42 58.336 262.762 58.336H263.53C264.767 58.336 265.748 58.1653 266.474 57.824C267.199 57.44 267.562 56.672 267.562 55.52L267.37 35.872C267.37 34.592 267.007 33.76 266.282 33.376C265.599 32.992 264.426 32.7147 262.762 32.544C262.506 32.5013 262.335 32.3947 262.25 32.224C262.207 32.0533 262.186 31.8187 262.186 31.52C262.186 31.264 262.292 31.0933 262.506 31.008C262.975 30.7947 264.767 30.368 267.882 29.728C270.783 29.0453 271.978 28.768 271.466 28.896L271.85 28.832C272.191 28.832 272.447 28.96 272.618 29.216C272.831 29.4293 272.938 29.728 272.938 30.112V31.84C272.938 32.1813 272.98 32.4587 273.066 32.672C273.194 32.8427 273.343 32.928 273.514 32.928C273.855 32.928 274.175 32.736 274.474 32.352C276.906 29.8347 279.7 28.576 282.858 28.576C286.271 28.576 288.831 29.5147 290.538 31.392C292.287 33.2693 293.226 35.552 293.354 38.24C293.396 39.0933 293.418 40.7787 293.418 43.296C293.418 46.752 293.375 50.8267 293.29 55.52C293.29 56.672 293.631 57.44 294.314 57.824C295.039 58.1653 296.02 58.336 297.258 58.336H298.026ZM333.848 54.688C334.189 54.688 334.36 54.8373 334.36 55.136L334.296 55.52C333.698 57.2693 332.738 58.592 331.416 59.488C330.093 60.3413 328.792 60.768 327.512 60.768C325.336 60.768 323.736 59.744 322.712 57.696C322.456 57.184 322.178 56.928 321.88 56.928C321.581 56.928 321.325 57.0347 321.112 57.248C319.618 58.4427 317.954 59.36 316.12 60C314.328 60.5973 312.557 60.896 310.808 60.896C308.248 60.896 306.221 60.2987 304.728 59.104C303.234 57.9093 302.488 56.288 302.488 54.24C302.488 52.6187 302.85 51.232 303.576 50.08C304.344 48.8853 305.538 47.8187 307.16 46.88C308.098 46.3253 309.186 45.8773 310.424 45.536C311.704 45.152 313.602 44.64 316.12 44C318.552 43.4027 320.13 42.9973 320.856 42.784C321.624 42.5707 322.008 42.08 322.008 41.312V39.712C322.008 37.536 321.901 35.9573 321.688 34.976C321.517 33.952 321.112 33.056 320.472 32.288C319.618 31.1787 318.146 30.624 316.056 30.624C314.648 30.624 313.517 31.008 312.664 31.776C311.853 32.5013 311.17 33.7173 310.616 35.424C309.89 37.7707 308.717 38.944 307.096 38.944C306.285 38.944 305.538 38.688 304.856 38.176C304.173 37.6213 303.832 36.896 303.832 36C303.832 35.1893 304.13 34.2293 304.728 33.12C305.368 31.968 306.584 30.9227 308.376 29.984C310.21 29.0453 312.813 28.576 316.184 28.576C318.317 28.576 320.237 28.9173 321.944 29.6C323.693 30.24 324.973 31.072 325.784 32.096C326.466 32.992 326.914 33.9307 327.128 34.912C327.384 35.8507 327.512 37.024 327.512 38.432C327.512 40.7787 327.49 42.7413 327.448 44.32L327.384 52.768C327.384 54.56 327.682 55.7547 328.28 56.352C328.877 56.9067 329.496 57.184 330.136 57.184C330.69 57.184 331.245 57.0133 331.8 56.672C332.397 56.3307 332.93 55.776 333.4 55.008C333.528 54.7947 333.677 54.688 333.848 54.688ZM313.752 57.696C314.989 57.696 316.248 57.4613 317.528 56.992C318.85 56.48 320.066 55.7333 321.176 54.752C321.602 54.3253 321.816 53.8987 321.816 53.472V52.896L321.944 46.24C321.944 45.728 321.794 45.3653 321.496 45.152C321.24 44.9387 320.877 44.896 320.408 45.024C316.354 46.0907 313.346 47.264 311.384 48.544C309.464 49.7813 308.504 51.424 308.504 53.472C308.504 54.6667 308.93 55.6693 309.784 56.48C310.637 57.2907 311.96 57.696 313.752 57.696ZM351.681 60.832C348.95 60.832 346.39 60.1707 344.001 58.848C341.654 57.5253 339.755 55.6693 338.305 53.28C336.854 50.848 336.129 48.0533 336.129 44.896C336.129 42.336 336.726 39.7973 337.921 37.28C339.158 34.7627 340.971 32.6933 343.361 31.072C345.75 29.408 348.587 28.576 351.873 28.576C354.347 28.576 356.459 28.96 358.209 29.728C359.958 30.4533 361.259 31.3493 362.113 32.416C363.009 33.4827 363.457 34.5067 363.457 35.488C363.457 36.2987 363.179 37.0027 362.625 37.6C362.07 38.1973 361.43 38.496 360.705 38.496C359.851 38.496 359.105 38.1973 358.465 37.6C357.867 37.0027 357.227 36.0853 356.545 34.848C355.051 32.1173 353.195 30.752 350.977 30.752C349.355 30.752 347.883 31.3493 346.561 32.544C345.281 33.696 344.257 35.3387 343.489 37.472C342.763 39.5627 342.401 41.9947 342.401 44.768C342.401 47.7973 342.891 50.2933 343.873 52.256C344.897 54.2187 346.177 55.648 347.713 56.544C349.291 57.44 350.934 57.888 352.641 57.888C356.395 57.888 359.51 56.16 361.985 52.704C362.198 52.448 362.411 52.32 362.625 52.32C362.838 52.32 363.009 52.3627 363.137 52.448C363.435 52.6187 363.585 52.832 363.585 53.088C363.585 53.2587 363.542 53.408 363.457 53.536C362.305 55.712 360.705 57.4827 358.657 58.848C356.651 60.1707 354.326 60.832 351.681 60.832ZM399.85 54.688C400.191 54.688 400.362 54.8373 400.362 55.136L400.298 55.52C399.701 57.2693 398.741 58.592 397.418 59.488C396.095 60.3413 394.794 60.768 393.514 60.768C391.338 60.768 389.738 59.744 388.714 57.696C388.458 57.184 388.181 56.928 387.882 56.928C387.583 56.928 387.327 57.0347 387.114 57.248C385.621 58.4427 383.957 59.36 382.122 60C380.33 60.5973 378.559 60.896 376.81 60.896C374.25 60.896 372.223 60.2987 370.73 59.104C369.237 57.9093 368.49 56.288 368.49 54.24C368.49 52.6187 368.853 51.232 369.578 50.08C370.346 48.8853 371.541 47.8187 373.162 46.88C374.101 46.3253 375.189 45.8773 376.426 45.536C377.706 45.152 379.605 44.64 382.122 44C384.554 43.4027 386.133 42.9973 386.858 42.784C387.626 42.5707 388.01 42.08 388.01 41.312V39.712C388.01 37.536 387.903 35.9573 387.69 34.976C387.519 33.952 387.114 33.056 386.474 32.288C385.621 31.1787 384.149 30.624 382.058 30.624C380.65 30.624 379.519 31.008 378.666 31.776C377.855 32.5013 377.173 33.7173 376.618 35.424C375.893 37.7707 374.719 38.944 373.098 38.944C372.287 38.944 371.541 38.688 370.858 38.176C370.175 37.6213 369.834 36.896 369.834 36C369.834 35.1893 370.133 34.2293 370.73 33.12C371.37 31.968 372.586 30.9227 374.378 29.984C376.213 29.0453 378.815 28.576 382.186 28.576C384.319 28.576 386.239 28.9173 387.946 29.6C389.695 30.24 390.975 31.072 391.786 32.096C392.469 32.992 392.917 33.9307 393.13 34.912C393.386 35.8507 393.514 37.024 393.514 38.432C393.514 40.7787 393.493 42.7413 393.45 44.32L393.386 52.768C393.386 54.56 393.685 55.7547 394.282 56.352C394.879 56.9067 395.498 57.184 396.138 57.184C396.693 57.184 397.247 57.0133 397.802 56.672C398.399 56.3307 398.933 55.776 399.402 55.008C399.53 54.7947 399.679 54.688 399.85 54.688ZM379.754 57.696C380.991 57.696 382.25 57.4613 383.53 56.992C384.853 56.48 386.069 55.7333 387.178 54.752C387.605 54.3253 387.818 53.8987 387.818 53.472V52.896L387.946 46.24C387.946 45.728 387.797 45.3653 387.498 45.152C387.242 44.9387 386.879 44.896 386.41 45.024C382.357 46.0907 379.349 47.264 377.386 48.544C375.466 49.7813 374.506 51.424 374.506 53.472C374.506 54.6667 374.933 55.6693 375.786 56.48C376.639 57.2907 377.962 57.696 379.754 57.696ZM454.346 58.912C454.09 59.6373 453.578 60 452.81 60H418.506C418.335 60 418.207 59.936 418.122 59.808C418.079 59.6373 418.058 59.4027 418.058 59.104C418.058 58.5067 418.207 58.208 418.506 58.208H419.466C421.343 58.208 422.73 57.9093 423.626 57.312C424.522 56.672 424.97 55.52 424.97 53.856V19.424C424.97 17.76 424.501 16.608 423.562 15.968C422.623 15.328 421.258 15.008 419.466 15.008H418.506C418.207 15.008 418.058 14.7093 418.058 14.112C418.058 13.5573 418.207 13.28 418.506 13.28H437.578C437.791 13.28 437.919 13.3653 437.962 13.536C438.047 13.664 438.09 13.8773 438.09 14.176C438.09 14.7307 437.919 15.008 437.578 15.008H436.682C434.847 15.008 433.461 15.3493 432.522 16.032C431.626 16.672 431.178 17.8027 431.178 19.424V54.112C431.178 55.6053 431.605 56.608 432.458 57.12C433.354 57.632 434.783 57.952 436.746 58.08L438.218 58.144L440.586 58.08C444.17 57.952 447.157 57.056 449.546 55.392C451.935 53.728 454.09 51.5947 456.01 48.992C456.351 48.5227 456.586 48.2453 456.714 48.16C456.799 48.0747 456.885 48.032 456.97 48.032C457.098 48.032 457.29 48.096 457.546 48.224C457.887 48.3947 458.058 48.608 458.058 48.864L457.994 49.184C456.245 53.7067 455.029 56.9493 454.346 58.912ZM494.198 54.688C494.539 54.688 494.71 54.8373 494.71 55.136L494.646 55.52C494.048 57.2693 493.088 58.592 491.766 59.488C490.443 60.3413 489.142 60.768 487.862 60.768C485.686 60.768 484.086 59.744 483.062 57.696C482.806 57.184 482.528 56.928 482.23 56.928C481.931 56.928 481.675 57.0347 481.462 57.248C479.968 58.4427 478.304 59.36 476.47 60C474.678 60.5973 472.907 60.896 471.158 60.896C468.598 60.896 466.571 60.2987 465.078 59.104C463.584 57.9093 462.838 56.288 462.838 54.24C462.838 52.6187 463.2 51.232 463.926 50.08C464.694 48.8853 465.888 47.8187 467.51 46.88C468.448 46.3253 469.536 45.8773 470.774 45.536C472.054 45.152 473.952 44.64 476.47 44C478.902 43.4027 480.48 42.9973 481.206 42.784C481.974 42.5707 482.358 42.08 482.358 41.312V39.712C482.358 37.536 482.251 35.9573 482.038 34.976C481.867 33.952 481.462 33.056 480.822 32.288C479.968 31.1787 478.496 30.624 476.406 30.624C474.998 30.624 473.867 31.008 473.014 31.776C472.203 32.5013 471.52 33.7173 470.966 35.424C470.24 37.7707 469.067 38.944 467.446 38.944C466.635 38.944 465.888 38.688 465.206 38.176C464.523 37.6213 464.182 36.896 464.182 36C464.182 35.1893 464.48 34.2293 465.078 33.12C465.718 31.968 466.934 30.9227 468.726 29.984C470.56 29.0453 473.163 28.576 476.534 28.576C478.667 28.576 480.587 28.9173 482.294 29.6C484.043 30.24 485.323 31.072 486.134 32.096C486.816 32.992 487.264 33.9307 487.478 34.912C487.734 35.8507 487.862 37.024 487.862 38.432C487.862 40.7787 487.84 42.7413 487.798 44.32L487.734 52.768C487.734 54.56 488.032 55.7547 488.63 56.352C489.227 56.9067 489.846 57.184 490.486 57.184C491.04 57.184 491.595 57.0133 492.15 56.672C492.747 56.3307 493.28 55.776 493.75 55.008C493.878 54.7947 494.027 54.688 494.198 54.688ZM474.102 57.696C475.339 57.696 476.598 57.4613 477.878 56.992C479.2 56.48 480.416 55.7333 481.526 54.752C481.952 54.3253 482.166 53.8987 482.166 53.472V52.896L482.294 46.24C482.294 45.728 482.144 45.3653 481.846 45.152C481.59 44.9387 481.227 44.896 480.758 45.024C476.704 46.0907 473.696 47.264 471.734 48.544C469.814 49.7813 468.854 51.424 468.854 53.472C468.854 54.6667 469.28 55.6693 470.134 56.48C470.987 57.2907 472.31 57.696 474.102 57.696ZM515.743 28.576C518.047 28.576 520.201 29.2587 522.207 30.624C524.212 31.9467 525.812 33.7813 527.007 36.128C528.201 38.4747 528.799 41.0987 528.799 44C528.799 47.1147 528.18 49.9733 526.943 52.576C525.705 55.136 524.063 57.1627 522.015 58.656C519.967 60.1493 517.769 60.896 515.423 60.896C511.796 60.896 508.66 59.7013 506.015 57.312C505.716 57.056 505.417 56.928 505.119 56.928C504.735 56.928 504.415 57.12 504.159 57.504L501.791 60.64C501.663 60.8107 501.535 60.896 501.407 60.896L501.023 60.832C500.852 60.7893 500.703 60.7253 500.575 60.64C500.489 60.5547 500.447 60.448 500.447 60.32L500.319 20C500.319 19.104 500.127 18.4427 499.743 18.016C499.359 17.5467 498.889 17.248 498.335 17.12C497.78 16.9493 496.905 16.8 495.711 16.672C495.455 16.672 495.284 16.6293 495.199 16.544C495.156 16.4587 495.135 16.288 495.135 16.032V15.712C495.135 15.4133 495.263 15.2213 495.519 15.136L504.415 13.024L504.799 12.96C505.14 12.96 505.396 13.088 505.567 13.344C505.78 13.5573 505.887 13.856 505.887 14.24V30.496C505.887 31.0507 505.972 31.4347 506.143 31.648C506.356 31.8613 506.612 31.8613 506.911 31.648C509.513 29.6 512.457 28.576 515.743 28.576ZM513.567 57.952C515.231 57.952 516.745 57.4187 518.111 56.352C519.476 55.2427 520.564 53.6427 521.375 51.552C522.185 49.4187 522.591 46.9013 522.591 44C522.591 40.8 522.015 38.2613 520.863 36.384C519.753 34.5067 518.473 33.2053 517.023 32.48C515.615 31.7547 514.377 31.392 513.311 31.392C512.201 31.392 511.049 31.648 509.855 32.16C508.66 32.672 507.572 33.3547 506.591 34.208C506.121 34.6773 505.887 35.232 505.887 35.872V53.792C505.887 54.5173 506.207 55.1147 506.847 55.584C507.913 56.3093 509.044 56.8853 510.239 57.312C511.476 57.7387 512.585 57.952 513.567 57.952ZM537.682 59.808C537.383 60.064 537.063 60.192 536.722 60.192C536.338 60.192 536.082 59.9147 535.954 59.36L533.906 51.168L533.842 50.848C533.842 50.5493 534.012 50.336 534.354 50.208C534.439 50.1653 534.567 50.144 534.738 50.144C535.036 50.144 535.271 50.2933 535.442 50.592C539.196 56.096 543.719 58.848 549.01 58.848C550.972 58.848 552.508 58.336 553.618 57.312C554.77 56.288 555.346 54.9653 555.346 53.344C555.346 52.4053 555.047 51.5307 554.45 50.72C553.895 49.9093 553.106 49.2693 552.082 48.8C551.015 48.288 549.756 47.8187 548.306 47.392C546.855 46.9653 545.959 46.7093 545.618 46.624C543.612 46.0693 542.204 45.6213 541.394 45.28C537.34 43.5307 535.314 40.8853 535.314 37.344C535.314 36.2347 535.612 35.0187 536.21 33.696C536.807 32.3307 537.81 31.136 539.218 30.112C540.668 29.088 542.588 28.576 544.978 28.576C546.044 28.576 547.004 28.6827 547.858 28.896C548.754 29.0667 549.735 29.3227 550.802 29.664C551.74 29.92 552.295 30.048 552.466 30.048C553.234 30.048 554.023 29.7707 554.834 29.216C555.175 28.96 555.474 28.832 555.73 28.832C556.071 28.832 556.306 29.088 556.434 29.6L558.61 36.768C558.652 36.896 558.674 37.0453 558.674 37.216C558.674 37.472 558.503 37.6853 558.162 37.856C558.076 37.8987 557.948 37.92 557.778 37.92C557.223 37.6213 556.818 37.3013 556.562 36.96C555.196 35.296 553.468 33.824 551.378 32.544C549.287 31.2213 547.09 30.56 544.786 30.56C542.78 30.56 541.308 31.0933 540.37 32.16C539.431 33.184 538.962 34.2507 538.962 35.36C538.962 36.256 539.26 37.024 539.858 37.664C540.455 38.304 541.458 38.9653 542.866 39.648C543.847 40.1173 545.554 40.7147 547.986 41.44C550.759 42.2507 552.828 42.976 554.194 43.616C556.114 44.512 557.543 45.6427 558.482 47.008C559.463 48.3733 559.954 49.9093 559.954 51.616C559.954 54.3893 558.908 56.6293 556.818 58.336C554.77 60.0427 552.018 60.896 548.562 60.896C547.495 60.896 546.45 60.7893 545.426 60.576C544.402 60.3627 543.143 60.0427 541.65 59.616C540.626 59.2747 539.922 59.104 539.538 59.104C538.898 59.104 538.279 59.3387 537.682 59.808Z" fill="white"/>
<path d="M449.89 74.06C450.01 74.06 450.28 74.198 450.7 74.474C451.12 74.738 451.504 75.032 451.852 75.356C452.212 75.68 452.392 75.938 452.392 76.13C452.392 76.286 452.314 76.4 452.158 76.472C452.002 76.532 451.804 76.574 451.564 76.598C451.324 76.61 451.138 76.64 451.006 76.688C450.874 76.736 450.67 76.862 450.394 77.066L449.818 77.498C448.606 78.422 447.706 79.046 447.118 79.37C446.986 79.442 446.92 79.52 446.92 79.604C446.92 79.688 446.98 79.772 447.1 79.856C447.928 80.48 448.342 81.104 448.342 81.728C448.342 81.992 448.264 82.22 448.108 82.412C447.964 82.604 447.772 82.7 447.532 82.7C447.088 82.7 446.716 82.364 446.416 81.692C446.188 81.188 445.798 80.624 445.246 80C444.694 79.364 444.1 78.884 443.464 78.56C443.236 78.44 443.122 78.35 443.122 78.29C443.122 78.242 443.164 78.218 443.248 78.218C443.404 78.218 443.782 78.32 444.382 78.524C444.994 78.728 445.582 78.98 446.146 79.28C446.23 79.328 446.308 79.352 446.38 79.352C446.488 79.352 446.584 79.31 446.668 79.226C447.34 78.602 447.952 77.93 448.504 77.21C449.056 76.49 449.332 75.926 449.332 75.518C449.332 75.374 449.242 75.302 449.062 75.302C448.906 75.302 447.97 75.422 446.254 75.662C444.55 75.902 443.296 76.106 442.492 76.274C441.94 76.394 441.388 76.556 440.836 76.76C440.788 76.772 440.698 76.802 440.566 76.85C440.434 76.898 440.32 76.922 440.224 76.922C439.888 76.922 439.546 76.772 439.198 76.472C438.85 76.16 438.622 75.866 438.514 75.59C438.466 75.458 438.442 75.344 438.442 75.248C438.442 75.14 438.472 75.086 438.532 75.086C438.568 75.086 438.694 75.14 438.91 75.248C439.246 75.392 439.588 75.464 439.936 75.464C440.08 75.464 440.272 75.452 440.512 75.428C440.728 75.404 440.896 75.392 441.016 75.392C441.844 75.332 443.32 75.182 445.444 74.942C447.58 74.69 448.852 74.504 449.26 74.384C449.368 74.348 449.476 74.288 449.584 74.204C449.704 74.108 449.806 74.06 449.89 74.06ZM467.224 72.962C467.368 72.962 467.572 73.064 467.836 73.268C468.112 73.46 468.358 73.676 468.574 73.916C468.79 74.156 468.898 74.336 468.898 74.456C468.898 74.564 468.826 74.702 468.682 74.87C468.454 75.158 468.316 75.434 468.268 75.698C468.22 75.914 468.178 76.28 468.142 76.796C468.118 77.312 468.1 77.624 468.088 77.732C468.04 79.172 468.016 80.204 468.016 80.828V81.71C467.92 82.406 467.59 82.754 467.026 82.754C466.846 82.754 466.696 82.646 466.576 82.43C466.456 82.214 466.396 81.986 466.396 81.746C466.396 81.638 466.27 81.584 466.018 81.584L465.244 81.638C464.548 81.662 463.804 81.704 463.012 81.764C462.22 81.824 461.68 81.878 461.392 81.926C461.116 81.986 460.93 82.028 460.834 82.052C460.546 82.136 460.33 82.178 460.186 82.178C460.09 82.178 459.976 82.13 459.844 82.034C459.712 81.938 459.598 81.824 459.502 81.692C459.31 81.464 459.208 81.344 459.196 81.332C459.1 81.212 459.022 81.086 458.962 80.954C458.914 80.81 458.89 80.696 458.89 80.612C458.89 80.516 458.914 80.468 458.962 80.468C459.01 80.468 459.094 80.498 459.214 80.558C459.334 80.618 459.448 80.672 459.556 80.72C459.76 80.804 459.922 80.864 460.042 80.9C460.174 80.936 460.336 80.954 460.528 80.954C460.948 80.942 461.782 80.912 463.03 80.864C464.29 80.816 465.31 80.768 466.09 80.72C466.33 80.696 466.45 80.672 466.45 80.648V80.63C466.522 80.03 466.588 79.238 466.648 78.254V78.2C466.648 77.972 466.564 77.858 466.396 77.858L466.09 77.876C465.454 77.912 464.704 77.966 463.84 78.038C462.976 78.11 462.298 78.17 461.806 78.218C461.542 78.242 461.272 78.29 460.996 78.362C460.78 78.422 460.612 78.452 460.492 78.452C460.384 78.452 460.252 78.422 460.096 78.362C459.844 78.266 459.604 78.062 459.376 77.75C459.148 77.438 459.034 77.174 459.034 76.958C459.034 76.862 459.07 76.814 459.142 76.814C459.178 76.814 459.262 76.856 459.394 76.94C459.538 77.024 459.682 77.096 459.826 77.156C460.138 77.264 460.444 77.318 460.744 77.318C461.272 77.306 462.088 77.27 463.192 77.21C464.296 77.15 465.364 77.09 466.396 77.03C466.636 77.006 466.756 76.874 466.756 76.634L466.882 74.6C466.882 74.516 466.864 74.462 466.828 74.438C466.792 74.402 466.732 74.384 466.648 74.384C466.156 74.396 465.286 74.432 464.038 74.492C462.79 74.552 461.974 74.612 461.59 74.672L460.816 74.816C460.456 74.9 460.21 74.942 460.078 74.942C459.814 74.942 459.55 74.804 459.286 74.528C459.022 74.252 458.836 73.976 458.728 73.7C458.68 73.58 458.656 73.466 458.656 73.358C458.656 73.226 458.698 73.16 458.782 73.16C458.818 73.16 458.878 73.196 458.962 73.268C459.058 73.328 459.148 73.388 459.232 73.448C459.52 73.616 459.91 73.7 460.402 73.7C461.35 73.7 462.508 73.682 463.876 73.646C465.256 73.61 466.072 73.526 466.324 73.394C466.504 73.31 466.666 73.22 466.81 73.124C466.894 73.076 466.966 73.04 467.026 73.016C467.098 72.98 467.164 72.962 467.224 72.962ZM486.772 74.69C486.964 74.69 487.24 74.738 487.6 74.834C487.972 74.93 488.296 75.068 488.572 75.248C488.86 75.428 489.004 75.632 489.004 75.86C489.004 76.028 488.938 76.154 488.806 76.238C488.674 76.322 488.5 76.364 488.284 76.364C488.152 76.364 487.996 76.352 487.816 76.328C487.648 76.304 487.528 76.286 487.456 76.274C486.58 76.154 485.686 76.094 484.774 76.094C484.258 76.094 483.7 76.112 483.1 76.148C482.872 76.16 482.74 76.28 482.704 76.508C482.296 78.596 481.678 80.312 480.85 81.656C480.022 83 478.876 84.134 477.412 85.058C477.316 85.106 477.238 85.13 477.178 85.13C477.118 85.13 477.088 85.106 477.088 85.058C477.088 85.01 477.16 84.92 477.304 84.788C478.408 83.9 479.272 82.742 479.896 81.314C480.52 79.874 480.964 78.344 481.228 76.724L481.246 76.634C481.246 76.526 481.21 76.448 481.138 76.4C481.066 76.34 480.97 76.322 480.85 76.346C479.614 76.514 478.594 76.772 477.79 77.12C477.358 77.312 477.016 77.408 476.764 77.408C476.452 77.408 476.086 77.27 475.666 76.994C475.246 76.718 474.94 76.412 474.748 76.076C474.7 76.004 474.676 75.932 474.676 75.86C474.676 75.824 474.682 75.794 474.694 75.77C474.718 75.734 474.742 75.716 474.766 75.716C474.79 75.716 474.838 75.734 474.91 75.77C474.994 75.806 475.072 75.836 475.144 75.86C475.42 75.956 475.75 76.004 476.134 76.004C476.482 76.004 478.126 75.836 481.066 75.5C481.294 75.476 481.42 75.35 481.444 75.122C481.54 74.27 481.588 73.448 481.588 72.656C481.588 72.212 481.54 71.882 481.444 71.666C481.348 71.45 481.126 71.306 480.778 71.234C480.766 71.234 480.742 71.228 480.706 71.216C480.67 71.204 480.646 71.192 480.634 71.18C480.622 71.168 480.616 71.15 480.616 71.126C480.616 71.018 480.688 70.916 480.832 70.82C480.988 70.712 481.192 70.658 481.444 70.658C481.684 70.658 481.966 70.712 482.29 70.82C482.626 70.928 482.914 71.072 483.154 71.252C483.394 71.432 483.514 71.618 483.514 71.81C483.514 71.918 483.472 72.056 483.388 72.224C483.376 72.248 483.34 72.32 483.28 72.44C483.232 72.56 483.19 72.782 483.154 73.106C483.118 73.562 483.052 74.162 482.956 74.906V74.978C482.956 75.206 483.076 75.308 483.316 75.284C483.412 75.272 483.802 75.242 484.486 75.194C485.182 75.146 485.68 75.074 485.98 74.978C486.076 74.954 486.214 74.894 486.394 74.798C486.43 74.786 486.484 74.768 486.556 74.744C486.628 74.708 486.7 74.69 486.772 74.69ZM504.322 74.06C504.466 74.06 504.76 74.246 505.204 74.618C505.648 74.99 505.87 75.236 505.87 75.356C505.87 75.44 505.816 75.548 505.708 75.68C505.6 75.812 505.522 75.908 505.474 75.968C505.318 76.184 505.228 76.376 505.204 76.544C504.796 78.476 504.268 80.246 503.62 81.854C503.26 82.73 502.846 83.354 502.378 83.726C501.91 84.086 501.484 84.266 501.1 84.266C500.92 84.266 500.764 84.224 500.632 84.14C500.512 84.044 500.452 83.906 500.452 83.726C500.452 83.522 500.428 83.366 500.38 83.258C500.344 83.15 500.284 83.036 500.2 82.916C500.068 82.736 499.786 82.46 499.354 82.088L499.012 81.782C498.904 81.674 498.85 81.596 498.85 81.548C498.85 81.5 498.874 81.476 498.922 81.476C498.97 81.476 499.048 81.5 499.156 81.548C500.056 82.076 500.71 82.34 501.118 82.34C501.286 82.34 501.484 82.274 501.712 82.142C501.94 82.01 502.144 81.758 502.324 81.386C502.732 80.558 503.056 79.736 503.296 78.92C503.536 78.092 503.704 77.39 503.8 76.814C503.896 76.238 503.944 75.866 503.944 75.698C503.944 75.542 503.848 75.464 503.656 75.464C503.488 75.464 502.852 75.518 501.748 75.626L500.452 75.752C500.248 75.764 500.11 75.878 500.038 76.094C499.69 77.21 499.222 78.326 498.634 79.442C498.022 80.558 497.152 81.596 496.024 82.556C494.896 83.516 493.828 84.218 492.82 84.662C492.7 84.722 492.616 84.752 492.568 84.752C492.52 84.752 492.496 84.734 492.496 84.698C492.496 84.638 492.568 84.554 492.712 84.446C495.064 82.754 496.78 80.708 497.86 78.308C498.1 77.78 498.346 77.156 498.598 76.436C498.706 76.124 498.73 75.968 498.67 75.968L498.562 75.986C497.518 76.142 496.726 76.292 496.186 76.436C496.054 76.472 495.922 76.514 495.79 76.562C495.67 76.61 495.574 76.634 495.502 76.634C495.178 76.634 494.884 76.526 494.62 76.31C494.356 76.082 494.146 75.836 493.99 75.572C493.834 75.308 493.756 75.134 493.756 75.05C493.756 74.978 493.792 74.942 493.864 74.942C493.9 74.942 494.044 74.99 494.296 75.086C494.872 75.266 495.406 75.356 495.898 75.356C496.234 75.356 497.158 75.302 498.67 75.194C498.898 75.17 499.03 75.056 499.066 74.852C499.234 74.096 499.318 73.472 499.318 72.98C499.318 72.668 499.258 72.398 499.138 72.17C499.03 71.942 498.814 71.762 498.49 71.63C498.418 71.606 498.352 71.588 498.292 71.576C498.232 71.552 498.178 71.528 498.13 71.504C498.094 71.468 498.076 71.432 498.076 71.396C498.076 71.276 498.178 71.192 498.382 71.144C498.598 71.084 498.832 71.054 499.084 71.054C499.6 71.054 500.116 71.156 500.632 71.36C501.148 71.564 501.406 71.81 501.406 72.098C501.406 72.218 501.352 72.35 501.244 72.494C501.064 72.746 500.92 73.04 500.812 73.376C500.728 73.64 500.62 74.048 500.488 74.6C500.476 74.636 500.47 74.684 500.47 74.744C500.47 74.84 500.5 74.912 500.56 74.96C500.62 74.996 500.71 75.008 500.83 74.996C502.018 74.876 502.744 74.792 503.008 74.744C503.212 74.708 503.398 74.636 503.566 74.528C503.734 74.408 503.83 74.336 503.854 74.312C504.058 74.144 504.214 74.06 504.322 74.06ZM522.952 70.964C523.144 70.964 523.294 70.88 523.402 70.712L523.636 70.37C523.696 70.298 523.762 70.208 523.834 70.1C523.906 69.992 523.966 69.914 524.014 69.866C524.062 69.806 524.11 69.776 524.158 69.776C524.254 69.776 524.476 69.926 524.824 70.226C525.184 70.514 525.436 70.766 525.58 70.982C525.64 71.066 525.67 71.132 525.67 71.18C525.67 71.252 525.64 71.318 525.58 71.378C525.484 71.438 525.376 71.468 525.256 71.468H523.798C523.678 71.468 523.582 71.504 523.51 71.576C523.45 71.636 523.42 71.726 523.42 71.846V76.562C523.42 76.682 523.432 76.778 523.456 76.85C523.492 76.91 523.534 76.94 523.582 76.94C523.69 76.94 523.798 76.856 523.906 76.688L524.104 76.364C524.152 76.292 524.206 76.202 524.266 76.094C524.338 75.986 524.398 75.908 524.446 75.86C524.494 75.8 524.542 75.77 524.59 75.77C524.674 75.77 524.872 75.914 525.184 76.202C525.508 76.49 525.742 76.742 525.886 76.958C525.946 77.042 525.976 77.114 525.976 77.174C525.976 77.246 525.94 77.312 525.868 77.372C525.784 77.432 525.676 77.462 525.544 77.462H523.798C523.678 77.462 523.582 77.498 523.51 77.57C523.45 77.63 523.42 77.72 523.42 77.84V81.152C523.444 82.46 523.486 83.78 523.546 85.112V85.202C523.546 85.37 523.486 85.49 523.366 85.562C523.078 85.802 522.718 85.922 522.286 85.922C522.166 85.922 522.058 85.886 521.962 85.814C521.878 85.742 521.836 85.658 521.836 85.562C521.884 84.854 521.926 84.17 521.962 83.51C521.998 82.838 522.022 81.962 522.034 80.882V77.84C522.034 77.72 521.998 77.63 521.926 77.57C521.866 77.498 521.776 77.462 521.656 77.462H520.036C519.796 77.462 519.664 77.588 519.64 77.84C519.568 79.604 519.22 81.146 518.596 82.466C517.984 83.786 516.88 84.902 515.284 85.814C515.092 85.922 514.966 85.946 514.906 85.886C514.882 85.862 514.87 85.838 514.87 85.814C514.87 85.754 514.948 85.658 515.104 85.526C516.268 84.53 517.078 83.414 517.534 82.178C517.99 80.942 518.248 79.496 518.308 77.84V77.804C518.308 77.696 518.272 77.612 518.2 77.552C518.14 77.492 518.056 77.462 517.948 77.462H517.678C517.402 77.486 517.156 77.528 516.94 77.588C516.868 77.612 516.814 77.624 516.778 77.624C516.634 77.624 516.52 77.546 516.436 77.39L516.382 77.3C516.346 77.228 516.328 77.156 516.328 77.084C516.328 76.916 516.448 76.844 516.688 76.868C516.892 76.892 517.21 76.916 517.642 76.94H517.948C518.068 76.94 518.158 76.91 518.218 76.85C518.29 76.778 518.326 76.682 518.326 76.562V71.846C518.326 71.726 518.29 71.636 518.218 71.576C518.158 71.504 518.068 71.468 517.948 71.468H517.084C516.868 71.468 516.754 71.438 516.742 71.378C516.742 71.354 516.724 71.342 516.688 71.342L516.544 71.36C516.52 71.372 516.466 71.378 516.382 71.378H513.916C513.688 71.378 513.556 71.492 513.52 71.72C513.268 73.124 512.944 74.36 512.548 75.428C512.524 75.488 512.512 75.56 512.512 75.644C512.512 75.74 512.542 75.806 512.602 75.842C512.698 75.89 512.836 75.914 513.016 75.914H514.06C514.252 75.914 514.408 75.836 514.528 75.68L514.636 75.536C514.672 75.5 514.732 75.428 514.816 75.32C514.912 75.212 514.996 75.158 515.068 75.158C515.152 75.158 515.338 75.266 515.626 75.482C515.926 75.686 516.16 75.878 516.328 76.058C516.376 76.118 516.4 76.184 516.4 76.256C516.4 76.34 516.346 76.418 516.238 76.49L516.13 76.544C515.914 76.616 515.806 76.754 515.806 76.958V79.154C515.83 80.474 515.872 81.788 515.932 83.096V83.168C515.932 83.36 515.86 83.486 515.716 83.546C515.572 83.63 515.404 83.702 515.212 83.762C515.032 83.822 514.87 83.852 514.726 83.852H514.654C514.51 83.816 514.438 83.696 514.438 83.492C514.462 83.396 514.474 83.324 514.474 83.276L514.51 83.06V83.042C514.51 82.922 514.474 82.832 514.402 82.772C514.342 82.7 514.252 82.664 514.132 82.664H512.908C512.788 82.664 512.692 82.7 512.62 82.772C512.56 82.832 512.53 82.922 512.53 83.042V83.204L512.566 83.924V84.068C512.566 84.2 512.53 84.302 512.458 84.374C512.362 84.47 512.23 84.548 512.062 84.608C511.894 84.68 511.702 84.716 511.486 84.716C511.378 84.716 511.288 84.68 511.216 84.608C511.144 84.536 511.108 84.452 511.108 84.356C511.192 83.156 511.246 81.842 511.27 80.414V79.118C511.27 79.01 511.252 78.932 511.216 78.884C511.18 78.824 511.132 78.794 511.072 78.794C510.988 78.794 510.904 78.86 510.82 78.992C510.628 79.316 510.364 79.682 510.028 80.09C509.956 80.186 509.884 80.246 509.812 80.27C509.752 80.294 509.704 80.294 509.668 80.27C509.632 80.234 509.614 80.192 509.614 80.144C509.614 80.072 509.65 79.982 509.722 79.874C510.802 77.858 511.582 75.158 512.062 71.774V71.702C512.062 71.486 511.942 71.378 511.702 71.378H511.378C511.09 71.39 510.778 71.438 510.442 71.522C510.37 71.546 510.316 71.558 510.28 71.558C510.136 71.558 510.028 71.48 509.956 71.324L509.902 71.216C509.866 71.144 509.848 71.072 509.848 71C509.848 70.928 509.878 70.874 509.938 70.838C509.998 70.79 510.082 70.772 510.19 70.784C510.598 70.82 511.216 70.85 512.044 70.874H514.096C514.288 70.874 514.438 70.796 514.546 70.64L514.996 70.028C515.068 69.92 515.158 69.866 515.266 69.866C515.35 69.866 515.44 69.902 515.536 69.974L516.49 70.784C516.622 70.904 516.778 70.964 516.958 70.964H522.952ZM520.036 71.468C519.916 71.468 519.82 71.504 519.748 71.576C519.688 71.636 519.658 71.726 519.658 71.846V76.562C519.658 76.682 519.688 76.778 519.748 76.85C519.82 76.91 519.916 76.94 520.036 76.94H521.656C521.776 76.94 521.866 76.91 521.926 76.85C521.998 76.778 522.034 76.682 522.034 76.562V71.846C522.034 71.726 521.998 71.636 521.926 71.576C521.866 71.504 521.776 71.468 521.656 71.468H520.036ZM514.132 82.142C514.252 82.142 514.342 82.112 514.402 82.052C514.474 81.98 514.51 81.884 514.51 81.764V76.796C514.51 76.676 514.474 76.586 514.402 76.526C514.342 76.454 514.252 76.418 514.132 76.418H512.908C512.788 76.418 512.692 76.454 512.62 76.526C512.56 76.586 512.53 76.676 512.53 76.796V81.764C512.53 81.884 512.56 81.98 512.62 82.052C512.692 82.112 512.788 82.142 512.908 82.142H514.132ZM540.826 71.666C541.03 71.666 541.186 71.594 541.294 71.45L541.492 71.234C541.552 71.174 541.636 71.084 541.744 70.964C541.852 70.844 541.942 70.784 542.014 70.784C542.098 70.784 542.296 70.934 542.608 71.234C542.92 71.522 543.16 71.78 543.328 72.008C543.364 72.08 543.382 72.146 543.382 72.206C543.382 72.314 543.322 72.386 543.202 72.422L543.076 72.458C542.872 72.494 542.716 72.56 542.608 72.656C542.02 73.148 541.396 73.586 540.736 73.97C540.568 74.09 540.448 74.12 540.376 74.06C540.352 74.036 540.34 74.012 540.34 73.988C540.34 73.928 540.376 73.826 540.448 73.682C540.652 73.274 540.814 72.92 540.934 72.62L540.97 72.458C540.97 72.374 540.94 72.308 540.88 72.26C540.82 72.212 540.742 72.188 540.646 72.188H538.504C538.384 72.188 538.288 72.224 538.216 72.296C538.156 72.356 538.126 72.446 538.126 72.566V75.086C538.126 75.206 538.156 75.284 538.216 75.32C538.288 75.356 538.444 75.374 538.684 75.374H540.124C540.688 75.374 541.066 75.368 541.258 75.356C541.438 75.356 541.576 75.338 541.672 75.302C541.732 75.278 541.78 75.242 541.816 75.194C541.888 75.11 542.02 74.792 542.212 74.24C542.284 74.024 542.35 73.916 542.41 73.916C542.47 73.916 542.506 74.042 542.518 74.294L542.536 74.906C542.536 75.074 542.638 75.218 542.842 75.338C543.01 75.446 543.094 75.596 543.094 75.788C543.094 76.004 543.01 76.172 542.842 76.292C542.686 76.412 542.386 76.496 541.942 76.544C541.51 76.592 540.874 76.616 540.034 76.616H538.36C537.892 76.616 537.544 76.58 537.316 76.508C537.1 76.436 536.95 76.316 536.866 76.148C536.782 75.968 536.74 75.704 536.74 75.356V72.566C536.74 72.446 536.704 72.356 536.632 72.296C536.572 72.224 536.482 72.188 536.362 72.188H534.94C534.724 72.188 534.586 72.296 534.526 72.512C534.19 73.856 533.56 74.936 532.636 75.752C531.712 76.556 530.434 77.168 528.802 77.588L528.586 77.624C528.49 77.624 528.43 77.594 528.406 77.534V77.498C528.406 77.462 528.43 77.426 528.478 77.39C528.538 77.342 528.616 77.3 528.712 77.264C529.948 76.748 530.896 76.118 531.556 75.374C532.228 74.618 532.69 73.694 532.942 72.602C532.954 72.578 532.96 72.536 532.96 72.476C532.96 72.284 532.846 72.188 532.618 72.188H530.98C530.752 72.188 530.62 72.314 530.584 72.566C530.536 73.022 530.41 73.418 530.206 73.754C530.014 74.09 529.786 74.348 529.522 74.528C529.33 74.672 529.102 74.744 528.838 74.744C528.61 74.744 528.418 74.684 528.262 74.564C528.118 74.432 528.046 74.252 528.046 74.024C528.046 73.688 528.244 73.394 528.64 73.142C529 72.974 529.318 72.686 529.594 72.278C529.87 71.87 530.032 71.42 530.08 70.928C530.116 70.676 530.17 70.55 530.242 70.55C530.35 70.55 530.428 70.658 530.476 70.874C530.524 71.066 530.554 71.21 530.566 71.306C530.602 71.546 530.734 71.666 530.962 71.666H534.652C534.904 71.666 535.03 71.54 535.03 71.288C535.006 70.58 534.976 70.064 534.94 69.74V69.704C534.94 69.488 535.036 69.38 535.228 69.38C535.288 69.38 535.336 69.386 535.372 69.398C536.38 69.674 536.884 69.89 536.884 70.046C536.884 70.094 536.836 70.148 536.74 70.208L536.686 70.244C536.518 70.352 536.434 70.502 536.434 70.694V71.288C536.434 71.408 536.464 71.504 536.524 71.576C536.596 71.636 536.692 71.666 536.812 71.666H540.826ZM537.73 78.866C537.922 78.866 538.072 78.788 538.18 78.632L538.342 78.398C538.378 78.362 538.426 78.296 538.486 78.2C538.558 78.104 538.618 78.038 538.666 78.002C538.714 77.954 538.762 77.93 538.81 77.93C538.894 77.93 539.08 78.062 539.368 78.326C539.668 78.59 539.902 78.83 540.07 79.046C540.106 79.118 540.124 79.184 540.124 79.244C540.124 79.352 540.064 79.43 539.944 79.478H539.926C539.866 79.514 539.794 79.574 539.71 79.658C539.638 79.73 539.602 79.814 539.602 79.91V83.906C539.602 84.026 539.632 84.104 539.692 84.14C539.752 84.176 539.884 84.194 540.088 84.194H542.302C542.386 84.182 542.446 84.164 542.482 84.14C542.53 84.104 542.572 84.05 542.608 83.978C542.656 83.894 542.716 83.708 542.788 83.42C542.872 83.12 542.926 82.922 542.95 82.826L543.112 82.16C543.16 81.932 543.22 81.818 543.292 81.818C543.328 81.818 543.358 81.854 543.382 81.926C543.406 81.986 543.418 82.076 543.418 82.196L543.454 83.744C543.454 83.9 543.544 84.05 543.724 84.194C543.856 84.302 543.922 84.458 543.922 84.662C543.922 84.986 543.718 85.22 543.31 85.364C542.914 85.52 542.194 85.598 541.15 85.598H539.746C539.302 85.598 538.972 85.556 538.756 85.472C538.54 85.388 538.39 85.25 538.306 85.058C538.234 84.878 538.198 84.608 538.198 84.248V79.784C538.198 79.664 538.162 79.574 538.09 79.514C538.03 79.442 537.94 79.406 537.82 79.406H535.444C535.216 79.406 535.078 79.52 535.03 79.748C534.706 81.236 534.022 82.49 532.978 83.51C531.946 84.518 530.392 85.298 528.316 85.85C528.256 85.874 528.184 85.886 528.1 85.886C528.028 85.886 527.968 85.862 527.92 85.814V85.778C527.92 85.742 527.95 85.7 528.01 85.652C528.07 85.616 528.148 85.58 528.244 85.544C529.852 84.908 531.064 84.116 531.88 83.168C532.708 82.22 533.26 81.104 533.536 79.82L533.554 79.712C533.554 79.616 533.518 79.544 533.446 79.496C533.386 79.436 533.302 79.406 533.194 79.406H531.718C530.986 79.418 530.194 79.484 529.342 79.604H529.234C529.066 79.604 528.946 79.526 528.874 79.37L528.784 79.208C528.748 79.136 528.73 79.064 528.73 78.992C528.73 78.92 528.76 78.866 528.82 78.83C528.88 78.782 528.964 78.764 529.072 78.776C529.48 78.812 530.098 78.842 530.926 78.866H533.32C533.56 78.866 533.692 78.746 533.716 78.506C533.728 78.362 533.734 78.134 533.734 77.822C533.734 77.378 533.704 76.928 533.644 76.472V76.382C533.644 76.154 533.764 76.058 534.004 76.094L535.534 76.238C535.63 76.25 535.708 76.286 535.768 76.346C535.84 76.394 535.876 76.448 535.876 76.508C535.876 76.568 535.846 76.616 535.786 76.652L535.696 76.706C535.588 76.754 535.504 76.808 535.444 76.868C535.396 76.928 535.366 77.012 535.354 77.12C535.342 77.576 535.306 78.026 535.246 78.47V78.542C535.246 78.758 535.366 78.866 535.606 78.866H537.73ZM559.24 75.392C559.432 75.392 559.582 75.308 559.69 75.14L559.906 74.816C559.942 74.768 559.996 74.69 560.068 74.582C560.14 74.462 560.2 74.378 560.248 74.33C560.308 74.27 560.362 74.24 560.41 74.24C560.506 74.24 560.722 74.384 561.058 74.672C561.406 74.96 561.658 75.206 561.814 75.41C561.874 75.494 561.904 75.566 561.904 75.626C561.904 75.698 561.868 75.764 561.796 75.824C561.7 75.884 561.586 75.914 561.454 75.914H560.086C559.966 75.914 559.87 75.95 559.798 76.022C559.738 76.082 559.708 76.172 559.708 76.292V81.206C559.732 82.514 559.774 83.834 559.834 85.166V85.256C559.834 85.424 559.774 85.544 559.654 85.616C559.342 85.856 558.976 85.976 558.556 85.976C558.436 85.976 558.328 85.94 558.232 85.868C558.148 85.796 558.106 85.712 558.106 85.616C558.154 84.908 558.196 84.224 558.232 83.564C558.268 82.892 558.292 82.016 558.304 80.936V76.292C558.304 76.172 558.268 76.082 558.196 76.022C558.136 75.95 558.046 75.914 557.926 75.914H556.27L555.892 75.932V75.95C555.892 77.234 555.796 78.44 555.604 79.568C555.412 80.684 555.016 81.788 554.416 82.88C553.816 83.96 552.94 84.914 551.788 85.742C551.596 85.874 551.464 85.904 551.392 85.832L551.356 85.76C551.356 85.7 551.416 85.598 551.536 85.454C552.712 84.182 553.504 82.766 553.912 81.206C554.332 79.646 554.542 77.888 554.542 75.932V73.484C554.542 72.764 554.506 72.08 554.434 71.432V71.396C554.434 71.18 554.518 71.072 554.686 71.072C554.722 71.072 554.776 71.084 554.848 71.108L555.676 71.396C555.796 71.42 555.874 71.432 555.91 71.432C556.006 71.432 556.096 71.414 556.18 71.378C557.596 70.778 558.73 70.184 559.582 69.596C559.678 69.536 559.762 69.506 559.834 69.506C559.918 69.506 560.014 69.548 560.122 69.632C560.578 70.004 560.896 70.286 561.076 70.478C561.268 70.658 561.364 70.784 561.364 70.856C561.364 70.916 561.268 70.946 561.076 70.946L560.842 70.928H560.734C560.638 70.928 560.518 70.946 560.374 70.982C559.246 71.342 557.866 71.666 556.234 71.954C556.006 71.99 555.892 72.122 555.892 72.35V75.014C555.892 75.134 555.922 75.23 555.982 75.302C556.054 75.362 556.15 75.392 556.27 75.392H559.24ZM551.482 70.928C551.674 70.928 551.824 70.844 551.932 70.676L552.166 70.334C552.214 70.274 552.274 70.19 552.346 70.082C552.43 69.962 552.496 69.878 552.544 69.83C552.604 69.77 552.658 69.74 552.706 69.74C552.79 69.74 553.006 69.89 553.354 70.19C553.702 70.478 553.96 70.724 554.128 70.928C554.176 70.988 554.2 71.06 554.2 71.144C554.2 71.228 554.17 71.294 554.11 71.342C554.014 71.402 553.9 71.432 553.768 71.432H548.98C548.248 71.444 547.456 71.51 546.604 71.63H546.496C546.328 71.63 546.208 71.552 546.136 71.396L546.064 71.27C546.028 71.198 546.01 71.132 546.01 71.072C546.01 70.892 546.13 70.814 546.37 70.838C546.778 70.874 547.396 70.904 548.224 70.928H551.482ZM551.086 73.934C551.278 73.934 551.428 73.856 551.536 73.7L551.698 73.484C551.746 73.424 551.812 73.334 551.896 73.214C551.992 73.094 552.076 73.034 552.148 73.034C552.232 73.034 552.424 73.16 552.724 73.412C553.036 73.664 553.276 73.892 553.444 74.096C553.492 74.156 553.516 74.222 553.516 74.294C553.516 74.378 553.462 74.456 553.354 74.528L553.192 74.618C552.976 74.69 552.868 74.828 552.868 75.032V76.328C552.904 77.576 552.934 78.524 552.958 79.172V79.262C552.958 79.43 552.892 79.55 552.76 79.622C552.628 79.706 552.466 79.778 552.274 79.838C552.082 79.898 551.908 79.928 551.752 79.928C551.644 79.928 551.566 79.886 551.518 79.802C551.482 79.73 551.464 79.664 551.464 79.604C551.464 79.556 551.476 79.484 551.5 79.388L551.536 79.208C551.536 79.088 551.5 78.998 551.428 78.938C551.368 78.866 551.278 78.83 551.158 78.83H548.746C548.518 78.83 548.392 78.95 548.368 79.19C548.272 80.462 548.056 81.65 547.72 82.754C547.384 83.846 546.844 84.83 546.1 85.706C545.944 85.898 545.824 85.964 545.74 85.904C545.716 85.88 545.704 85.838 545.704 85.778C545.704 85.694 545.728 85.604 545.776 85.508C546.316 84.356 546.664 83.114 546.82 81.782C546.976 80.438 547.054 78.884 547.054 77.12V75.158C547.054 74.642 547.036 74.132 547 73.628V73.556C547 73.472 547.018 73.406 547.054 73.358C547.102 73.31 547.156 73.286 547.216 73.286C547.276 73.286 547.342 73.304 547.414 73.34L548.458 73.826C548.614 73.898 548.77 73.934 548.926 73.934H551.086ZM548.422 77.948C548.422 78.056 548.452 78.14 548.512 78.2C548.584 78.26 548.674 78.29 548.782 78.29H551.158C551.278 78.29 551.368 78.26 551.428 78.2C551.5 78.128 551.536 78.032 551.536 77.912V74.852C551.536 74.732 551.5 74.642 551.428 74.582C551.368 74.51 551.278 74.474 551.158 74.474H548.8C548.68 74.474 548.584 74.51 548.512 74.582C548.452 74.642 548.422 74.732 548.422 74.852V77.102V77.912V77.948Z" fill="white"/>
<path d="M38.25 15.75C33.7745 20.2255 31.2602 26.2956 31.2602 32.625C31.2602 38.9544 33.7745 45.0245 38.25 49.5C42.7255 53.9755 48.7957 56.4899 55.125 56.4899C61.4544 56.4899 67.5245 53.9755 72 49.5C72 56.1751 70.0206 62.7003 66.3121 68.2505C62.6036 73.8007 57.3326 78.1265 51.1656 80.6809C44.9986 83.2354 38.2126 83.9038 31.6657 82.6015C25.1189 81.2993 19.1052 78.0849 14.3852 73.3649C9.66514 68.6448 6.45076 62.6312 5.14851 56.0843C3.84626 49.5374 4.51462 42.7514 7.06908 36.5844C9.62354 30.4174 13.9494 25.1464 19.4995 21.4379C25.0497 17.7294 31.5749 15.75 38.25 15.75Z" fill="#F9FAFB" stroke="#F9FAFB" stroke-width="7.5" stroke-linecap="round" stroke-linejoin="round"/>
</g>
<defs>
<clipPath id="clip0_14_11">
<rect width="563" height="89.5" fill="white"/>
</clipPath>
</defs>
</svg>
